<?xml version="1.0" standalone="no"?>
<!DOCTYPE svg PUBLIC "-//W3C//DTD SVG 20010904//EN"
 "http://www.w3.org/TR/2001/REC-SVG-20010904/DTD/svg10.dtd">
<svg version="1.0" xmlns="http://www.w3.org/2000/svg"
 width="1400.000000pt" height="776.000000pt" viewBox="0 0 1400.000000 776.000000"
 preserveAspectRatio="xMidYMid meet">

<g transform="translate(0.000000,776.000000) scale(0.100000,-0.100000)"
fill="#000000" stroke="none">
<path d="M5 3880 c0 -2137 1 -3011 2 -1942 2 1068 2 2816 0 3885 -1 1068 -2
194 -2 -1943z"/>
<path d="M3015 7506 c-87 -28 -141 -73 -206 -172 -29 -44 -238 -350 -595 -869
-46 -66 -121 -176 -168 -245 -46 -69 -131 -193 -188 -275 -57 -83 -168 -246
-248 -363 -80 -117 -207 -304 -284 -415 -277 -404 -363 -533 -379 -564 -36
-69 -10 -167 50 -187 37 -13 60 -32 24 -21 -35 11 -17 -11 29 -35 46 -23 37
-20 955 -355 636 -232 740 -268 810 -274 44 -5 73 -9 64 -10 -9 0 -22 -8 -30
-17 -10 -13 -10 -17 2 -25 19 -12 79 -11 79 1 0 6 6 10 13 10 13 0 118 76 129
94 3 6 18 25 33 41 41 47 58 84 46 99 -15 18 15 44 31 28 8 -8 17 1 34 35 13
25 39 64 57 87 19 22 42 55 51 71 22 38 62 94 88 122 12 12 17 27 13 34 -5 7
-4 10 2 6 5 -3 25 20 43 51 19 31 49 75 67 98 18 23 33 46 33 51 0 5 11 23 25
39 14 16 36 45 48 64 12 19 25 40 29 45 29 36 140 203 145 217 3 10 9 16 13
13 4 -3 13 8 19 23 6 15 24 41 39 59 16 17 36 50 47 72 10 22 21 38 26 36 4
-3 10 8 14 25 4 17 11 28 16 24 5 -3 9 0 9 6 0 7 8 22 18 35 9 12 24 33 32 45
8 12 29 41 46 64 17 22 39 56 49 74 11 17 23 32 27 32 4 0 8 5 8 10 0 6 18 35
40 65 22 30 40 58 40 62 0 4 15 24 33 43 17 19 31 36 30 37 -4 4 68 115 84
131 7 7 13 20 13 28 0 8 4 14 8 14 4 0 19 18 32 40 14 22 28 40 33 40 4 0 7 6
7 13 0 6 11 25 25 41 14 16 25 35 25 43 0 7 4 13 9 13 4 0 37 42 71 93 35 50
67 94 72 95 4 2 6 8 2 13 -3 5 -1 9 3 9 5 0 17 16 27 35 11 19 24 35 29 35 6
0 8 3 4 6 -3 4 -1 12 6 20 27 31 53 69 70 107 7 15 16 24 20 20 4 -3 7 -1 7 5
0 6 12 24 26 41 20 24 24 37 19 60 -7 32 8 49 29 32 10 -8 16 -4 27 17 7 15
23 43 35 62 41 68 10 213 -51 245 -11 5 -34 20 -50 31 -31 22 -80 40 -735 279
-206 75 -440 161 -520 190 -289 106 -366 133 -419 149 -64 19 -160 20 -216 2z
m337 -115 l147 -53 -2 -55 c-2 -49 1 -58 24 -75 25 -19 724 -279 805 -299 52
-13 100 0 134 36 13 14 29 25 35 25 24 0 296 -108 329 -131 41 -28 56 -56 56
-108 0 -44 41 19 -476 -738 -88 -128 -213 -312 -279 -409 -66 -98 -185 -272
-265 -388 -80 -116 -273 -398 -430 -626 -485 -709 -450 -661 -511 -693 -48
-26 -61 -28 -124 -24 -46 3 -102 16 -165 40 -88 33 -185 68 -368 135 -71 26
-75 29 -97 77 -27 61 -90 118 -153 139 -64 22 -170 20 -233 -4 l-52 -19 -276
101 c-152 55 -287 106 -301 114 -93 51 -114 122 -61 206 30 48 692 1018 1216
1783 166 242 377 550 469 685 92 135 185 262 208 283 81 75 159 74 370 -2z
m-2272 -3001 c8 -5 11 -10 5 -10 -5 0 -17 5 -25 10 -8 5 -10 10 -5 10 6 0 17
-5 25 -10z m895 -241 c10 -14 1 -21 -19 -13 -9 3 -13 10 -10 15 7 12 21 11 29
-2z"/>
<path d="M2927 6866 l-37 -56 -63 24 -63 24 -24 -37 c-14 -20 -33 -48 -42 -63
l-17 -27 59 -22 c33 -12 60 -24 60 -27 0 -3 -14 -27 -31 -54 -16 -28 -29 -52
-27 -54 2 -2 34 -15 71 -29 l67 -25 36 55 c20 30 37 55 38 55 1 0 25 -9 54
-20 72 -27 79 -26 93 19 10 35 9 44 -9 75 -12 20 -17 36 -11 36 19 0 59 49 59
73 0 31 -22 50 -90 75 -30 11 -62 23 -71 27 -11 4 -26 -10 -52 -49z m86 16
c16 -7 16 -10 -7 -29 -14 -13 -28 -33 -32 -47 -5 -21 -8 -23 -34 -13 l-27 10
26 44 c25 42 39 48 74 35z m89 -39 c37 -33 15 -76 -24 -49 -12 9 -35 16 -51
16 -34 0 -32 19 4 37 32 17 49 16 71 -4z m-234 -46 c34 -12 62 -25 62 -28 0
-4 -13 -9 -29 -12 -15 -3 -42 -17 -58 -31 -29 -24 -33 -25 -64 -12 -19 7 -42
16 -52 19 -16 6 -15 11 13 53 23 33 36 44 48 39 10 -3 45 -16 80 -28z m200
-25 c3 -10 -4 -13 -24 -10 -15 2 -29 9 -32 16 -3 10 4 13 24 10 15 -2 29 -9
32 -16z m-68 -30 c0 -17 -52 -82 -65 -82 -8 0 -33 7 -55 16 -35 14 -39 19 -28
32 7 8 26 21 43 28 33 14 105 19 105 6z m66 -38 c17 -25 23 -78 11 -90 -7 -7
-107 25 -107 34 0 17 52 82 65 82 8 0 22 -12 31 -26z m-180 -50 c22 -9 40 -17
42 -19 5 -5 -50 -85 -58 -85 -12 0 -100 32 -100 36 0 14 55 84 65 84 7 0 30
-7 51 -16z"/>
<path d="M3296 6764 c-20 -20 -20 -19 6 -44 18 -16 19 -20 5 -20 -8 0 -19 5
-22 10 -9 15 -25 12 -25 -5 0 -35 74 -45 94 -12 9 15 6 21 -14 37 -28 22 -24
25 14 10 21 -7 26 -6 26 5 0 16 -30 35 -54 35 -8 0 -22 -7 -30 -16z"/>
<path d="M3405 6694 c19 -15 19 -15 -6 -9 -31 8 -57 -16 -37 -33 7 -6 25 -13
40 -17 22 -6 29 -2 42 23 18 34 6 52 -33 52 -25 -1 -26 -1 -6 -16z"/>
<path d="M3530 6690 c0 -13 11 -13 30 0 12 8 11 10 -7 10 -13 0 -23 -4 -23
-10z"/>
<path d="M3466 6665 c-22 -34 -20 -52 7 -58 12 -2 29 -7 37 -11 20 -8 56 52
40 68 -8 8 -16 4 -30 -14 -21 -28 -37 -22 -21 8 10 18 6 32 -10 32 -3 0 -14
-11 -23 -25z"/>
<path d="M3644 6645 c-5 -11 -11 -12 -26 -4 -25 13 -68 -13 -68 -41 0 -20 33
-40 64 -40 17 0 69 77 61 90 -9 15 -25 12 -31 -5z m-34 -45 c0 -5 -4 -10 -10
-10 -5 0 -10 5 -10 10 0 6 5 10 10 10 6 0 10 -4 10 -10z"/>
<path d="M3198 6610 c-23 -14 -34 -70 -17 -81 23 -14 29 -10 29 16 0 16 6 25
16 25 10 0 14 7 12 22 -4 25 -17 31 -40 18z"/>
<path d="M3669 6591 c-20 -16 -22 -23 -13 -38 6 -10 24 -19 40 -21 28 -2 28
-2 9 13 -19 16 -19 16 7 10 35 -9 51 21 23 41 -25 19 -38 18 -66 -5z m46 -11
c3 -5 1 -10 -4 -10 -6 0 -11 5 -11 10 0 6 2 10 4 10 3 0 8 -4 11 -10z"/>
<path d="M3242 6550 c-12 -16 -22 -32 -22 -35 0 -12 41 -4 46 10 4 8 14 15 24
15 27 0 34 17 11 29 -29 16 -35 14 -59 -19z"/>
<path d="M3884 6559 c-3 -6 -16 -8 -28 -5 -28 7 -66 -19 -66 -45 0 -19 34 -39
65 -39 16 0 67 79 59 92 -7 11 -22 10 -30 -3z m-34 -44 c0 -8 -4 -15 -10 -15
-5 0 -10 7 -10 15 0 8 5 15 10 15 6 0 10 -7 10 -15z"/>
<path d="M3330 6540 c0 -5 6 -11 13 -11 6 -1 -1 -4 -18 -8 -39 -8 -38 -29 2
-46 30 -13 34 -12 48 8 19 28 19 53 -1 61 -24 9 -44 7 -44 -4z"/>
<path d="M3406 6505 c-15 -25 -27 -47 -25 -49 24 -17 70 -26 88 -16 29 15 28
58 -1 69 -14 5 -18 10 -10 15 7 4 10 12 7 17 -12 19 -31 8 -59 -36z m45 -38
c-13 -13 -26 -3 -16 12 3 6 11 8 17 5 6 -4 6 -10 -1 -17z"/>
<path d="M3909 6501 c-20 -16 -22 -23 -13 -38 13 -22 60 -29 80 -12 20 16 17
46 -5 59 -27 14 -35 13 -62 -9z m41 -21 c0 -5 -4 -10 -10 -10 -5 0 -10 5 -10
10 0 6 5 10 10 10 6 0 10 -4 10 -10z"/>
<path d="M3104 6476 c-7 -18 3 -36 19 -36 8 0 7 3 -2 9 -15 10 -7 31 12 31 7
0 6 -4 -3 -10 -12 -8 -10 -10 8 -10 15 0 22 5 20 13 -7 18 -47 21 -54 3z"/>
<path d="M3520 6470 c0 -5 8 -11 18 -11 9 -1 2 -4 -17 -8 -48 -8 -49 -27 -5
-46 39 -16 40 -16 64 27 7 12 5 21 -6 32 -17 18 -54 22 -54 6z"/>
<path d="M3616 6455 c-9 -14 -23 -36 -31 -49 -13 -20 -14 -24 -2 -29 17 -6 82
77 72 93 -10 16 -22 12 -39 -15z"/>
<path d="M3217 6453 c9 -3 10 -10 3 -24 -6 -11 -7 -19 -1 -19 12 0 23 29 15
41 -3 5 -11 9 -17 8 -9 0 -9 -2 0 -6z"/>
<path d="M3648 6416 c-16 -24 -28 -46 -28 -50 0 -13 25 -5 47 16 17 16 23 18
23 7 0 -8 -5 -20 -12 -27 -9 -9 -7 -13 6 -18 11 -4 22 0 31 12 21 28 18 54 -7
63 -14 5 -18 10 -10 15 7 4 10 12 7 17 -12 19 -31 8 -57 -35z"/>
<path d="M3185 6431 c-3 -5 -2 -12 3 -15 5 -3 9 1 9 9 0 17 -3 19 -12 6z"/>
<path d="M3281 6421 c-18 -12 -6 -41 16 -40 17 1 17 2 0 6 -25 7 -15 29 12 26
13 -2 20 1 16 7 -8 12 -25 13 -44 1z"/>
<path d="M3359 6401 c8 -5 11 -16 8 -25 -4 -9 -2 -16 2 -16 5 0 11 6 14 14 6
15 -11 36 -27 36 -6 0 -5 -4 3 -9z"/>
<path d="M3326 6391 c-5 -7 -3 -18 3 -24 14 -14 20 -6 11 17 -5 15 -9 16 -14
7z"/>
<path d="M3401 6383 c0 -6 -4 -18 -7 -27 -9 -22 9 -20 37 5 22 19 23 19 2 10
-18 -9 -22 -8 -26 7 -3 9 -5 12 -6 5z"/>
<path d="M3760 6380 c0 -5 6 -11 13 -11 6 -1 -1 -4 -18 -8 -40 -8 -38 -33 3
-45 27 -7 35 -6 47 10 19 25 19 50 -1 58 -24 9 -44 7 -44 -4z"/>
<path d="M3452 6358 c-7 -7 -12 -16 -12 -22 0 -5 3 -6 7 -3 3 4 12 -1 20 -11
8 -9 12 -12 9 -6 -7 14 21 40 31 30 4 -4 2 -16 -5 -26 -17 -28 3 -25 22 2 9
12 16 25 16 29 0 8 -54 4 -70 -6 -10 -6 -12 -4 -7 8 8 20 5 21 -11 5z"/>
<path d="M3915 6360 c-4 -6 -16 -8 -27 -4 -29 9 -68 -15 -68 -42 0 -26 4 -29
47 -38 29 -7 33 -4 57 37 14 24 26 47 26 50 0 11 -28 8 -35 -3z m-35 -39 c0
-6 -4 -13 -10 -16 -5 -3 -10 1 -10 9 0 9 5 16 10 16 6 0 10 -4 10 -9z"/>
<path d="M3603 6324 c3 -4 2 -15 -4 -26 -6 -11 -8 -22 -6 -25 3 -3 13 9 22 26
14 29 14 31 -1 31 -10 0 -14 -3 -11 -6z"/>
<path d="M3641 6306 c-11 -13 -5 -46 9 -46 4 0 14 8 23 18 13 14 14 21 5 30
-15 15 -23 15 -37 -2z m29 -11 c0 -8 -7 -15 -15 -15 -16 0 -20 12 -8 23 11 12
23 8 23 -8z"/>
<path d="M3939 6301 c-20 -16 -22 -23 -13 -38 13 -22 60 -29 80 -12 20 16 17
46 -5 59 -27 14 -35 13 -62 -9z m51 -21 c0 -5 -7 -10 -15 -10 -8 0 -15 5 -15
10 0 6 7 10 15 10 8 0 15 -4 15 -10z"/>
<path d="M4029 6259 c-17 -24 -19 -33 -9 -42 9 -9 15 -7 27 11 9 12 24 22 34
22 24 0 24 9 2 26 -25 19 -29 18 -54 -17z"/>
<path d="M2356 6231 c-16 -17 -16 -20 -1 -35 18 -18 35 -21 35 -6 0 6 -7 10
-16 10 -9 0 -14 7 -12 18 3 12 12 16 31 15 15 -1 25 2 22 8 -10 15 -41 10 -59
-10z"/>
<path d="M2440 6201 c0 -5 -3 -18 -7 -28 -6 -16 -5 -16 10 -4 19 15 23 41 7
41 -5 0 -10 -4 -10 -9z"/>
<path d="M2413 6193 c-15 -5 -17 -23 -4 -23 5 0 11 7 15 15 3 8 4 15 3 14 -1
0 -8 -3 -14 -6z"/>
<path d="M2463 6175 c-8 -23 0 -24 20 -3 14 15 15 18 2 18 -9 0 -18 -7 -22
-15z"/>
<path d="M2510 6170 c-6 -12 -9 -26 -6 -33 2 -7 5 -4 5 5 1 9 8 21 17 26 11 6
13 12 6 16 -6 4 -16 -3 -22 -14z"/>
<path d="M2540 6155 c-7 -9 -10 -18 -7 -21 3 -3 10 4 17 15 13 25 8 27 -10 6z"/>
<path d="M2567 6150 c-16 -22 -16 -25 -1 -33 12 -7 19 -5 26 7 13 24 31 20 23
-5 -5 -15 -4 -19 4 -15 6 4 11 3 11 -3 0 -6 7 -7 17 -4 12 5 14 3 8 -7 -5 -8
-3 -11 6 -8 17 6 25 48 9 48 -6 0 -8 -4 -5 -10 3 -5 -3 -10 -14 -10 -14 0 -21
6 -21 20 0 11 -5 20 -11 20 -5 0 -7 6 -3 13 6 9 4 9 -8 -1 -13 -10 -17 -10
-20 -1 -3 8 -11 4 -21 -11z m15 -22 c-7 -7 -12 -8 -12 -2 0 14 12 26 19 19 2
-3 -1 -11 -7 -17z"/>
<path d="M2216 6053 c-3 -10 -9 -25 -12 -33 -4 -8 5 -2 20 13 30 32 31 37 12
37 -7 0 -16 -8 -20 -17z"/>
<path d="M2250 6025 c-17 -21 -9 -27 13 -10 10 7 14 16 9 19 -5 3 -15 -1 -22
-9z"/>
<path d="M2307 6005 c-4 -8 -12 -15 -19 -15 -9 0 -9 3 2 11 12 9 12 10 1 7
-24 -7 -25 -28 -2 -28 20 0 40 25 28 36 -2 3 -7 -2 -10 -11z"/>
<path d="M2336 5995 c-17 -26 -12 -35 21 -35 13 0 23 -4 23 -10 0 -5 5 -10 11
-10 5 0 7 5 4 10 -3 6 -1 10 4 10 6 0 11 -8 11 -17 0 -15 2 -14 14 2 8 11 12
24 9 28 -3 5 -8 5 -12 1 -10 -14 -43 -13 -38 1 3 6 -3 19 -13 28 -17 14 -20
14 -34 -8z m34 -15 c0 -5 -7 -10 -15 -10 -8 0 -15 5 -15 10 0 6 7 10 15 10 8
0 15 -4 15 -10z"/>
<path d="M2452 5960 c-15 -24 -15 -33 -2 -25 6 3 10 1 10 -6 0 -10 3 -10 12
-1 17 17 31 15 24 -4 -3 -8 -2 -12 4 -9 12 8 13 25 0 45 -8 13 -11 12 -25 -5
-16 -20 -16 -20 -10 3 8 27 4 28 -13 2z"/>
<path d="M2134 5945 c-8 -21 -3 -25 24 -18 13 3 21 11 19 17 -6 18 -37 19 -43
1z m36 1 c0 -2 -7 -7 -16 -10 -8 -3 -12 -2 -9 4 6 10 25 14 25 6z"/>
<path d="M2186 5924 c-9 -24 -7 -31 5 -11 15 25 32 21 24 -5 -7 -23 -7 -23 10
-3 16 20 16 20 12 -3 -5 -19 -3 -21 9 -11 21 17 17 36 -8 43 -35 9 -45 7 -52
-10z"/>
<path d="M2546 5914 c-9 -22 3 -32 14 -14 12 19 12 30 1 30 -5 0 -12 -7 -15
-16z"/>
<path d="M2306 5898 c-25 -35 -19 -42 9 -12 28 30 30 34 16 34 -6 0 -17 -10
-25 -22z"/>
<path d="M2515 5911 c-3 -5 -1 -12 5 -16 5 -3 10 1 10 9 0 18 -6 21 -15 7z"/>
<path d="M2580 5906 c-16 -16 -11 -33 10 -39 13 -3 24 3 35 19 8 13 15 25 15
26 0 8 -52 2 -60 -6z m30 -16 c0 -5 -7 -10 -15 -10 -8 0 -15 5 -15 10 0 6 7
10 15 10 8 0 15 -4 15 -10z"/>
<path d="M2330 5875 c-19 -23 3 -44 29 -28 16 10 20 9 24 -8 3 -10 11 -19 19
-19 11 0 10 2 -1 9 -17 11 -4 34 16 27 8 -4 11 -1 8 5 -4 6 -14 8 -22 5 -8 -3
-21 1 -29 9 -19 19 -28 19 -44 0z m30 -10 c0 -8 -4 -15 -10 -15 -5 0 -10 7
-10 15 0 8 5 15 10 15 6 0 10 -7 10 -15z"/>
<path d="M2637 5883 c-15 -15 -6 -33 17 -33 13 0 26 -4 28 -9 2 -5 14 -1 27
10 14 12 18 19 9 19 -8 0 -19 -5 -26 -12 -9 -9 -12 -7 -12 10 0 21 -28 31 -43
15z m33 -13 c0 -5 -7 -10 -15 -10 -8 0 -15 5 -15 10 0 6 7 10 15 10 8 0 15 -4
15 -10z"/>
<path d="M2070 5849 c-14 -24 -7 -34 16 -25 12 5 14 9 5 20 -6 7 -8 16 -4 19
3 4 3 7 0 7 -3 0 -11 -9 -17 -21z"/>
<path d="M2731 5851 c-15 -10 -8 -41 9 -41 6 0 8 5 4 12 -5 8 -2 9 10 5 13 -5
17 -2 14 10 -4 20 -18 26 -37 14z"/>
<path d="M2137 5843 c10 -3 10 -10 2 -26 -11 -21 -10 -21 6 -5 18 17 13 39 -8
37 -9 0 -9 -2 0 -6z"/>
<path d="M2434 5835 c-4 -9 -2 -21 4 -27 15 -15 44 -1 40 19 -4 23 -36 29 -44
8z m36 -4 c0 -12 -20 -25 -27 -18 -7 7 6 27 18 27 5 0 9 -4 9 -9z"/>
<path d="M2787 5834 c-4 -4 -1 -14 6 -22 10 -13 9 -15 -6 -9 -11 4 -16 3 -12
-3 10 -15 35 -12 35 5 0 8 0 18 1 22 1 10 -16 15 -24 7z"/>
<path d="M2834 5815 c-9 -13 -14 -28 -12 -33 1 -5 13 6 25 24 12 19 18 34 13
34 -5 0 -17 -11 -26 -25z"/>
<path d="M2166 5815 c-9 -26 -7 -32 5 -12 6 10 9 21 6 23 -2 3 -7 -2 -11 -11z"/>
<path d="M2545 5798 c-16 -28 -16 -31 -2 -19 15 12 21 9 18 -11 0 -5 4 -8 9
-8 6 0 10 7 10 15 0 8 5 15 10 15 16 0 11 27 -6 34 -9 3 -17 6 -18 6 -1 0 -10
-15 -21 -32z m36 -1 c-13 -13 -26 -3 -16 12 3 6 11 8 17 5 6 -4 6 -10 -1 -17z"/>
<path d="M2195 5800 c-10 -11 -14 -20 -9 -20 5 0 15 9 22 20 7 11 11 20 9 20
-2 0 -12 -9 -22 -20z"/>
<path d="M2220 5795 c-7 -9 -11 -17 -9 -20 3 -2 10 5 17 15 14 24 10 26 -8 5z"/>
<path d="M2257 5796 c3 -5 -3 -16 -13 -24 -18 -14 -18 -14 3 -9 13 3 24 -1 27
-9 3 -8 13 -14 23 -13 16 0 15 1 -2 9 -18 7 -17 8 9 11 28 4 28 5 11 19 -10 8
-16 10 -12 3 5 -8 0 -11 -13 -10 -22 1 -25 8 -10 23 6 6 3 10 -9 10 -11 0 -17
-5 -14 -10z"/>
<path d="M2885 5800 c3 -5 -3 -10 -14 -10 -12 0 -21 -5 -21 -11 0 -6 7 -8 16
-5 9 4 13 2 8 -5 -4 -7 -1 -10 7 -7 17 6 25 48 9 48 -6 0 -8 -4 -5 -10z"/>
<path d="M2601 5776 c-14 -17 -7 -36 12 -35 9 0 9 2 0 6 -22 8 -14 21 8 16 15
-4 20 -2 17 7 -6 20 -23 23 -37 6z"/>
<path d="M2914 5775 c3 -8 0 -15 -7 -15 -8 0 -7 -4 3 -9 18 -12 33 -3 26 16
-3 8 -1 11 4 8 6 -3 10 -1 10 4 0 6 -9 11 -21 11 -15 0 -19 -5 -15 -15z"/>
<path d="M2980 5784 c0 -6 -9 -20 -20 -32 -12 -12 -16 -22 -11 -22 14 0 46 49
37 57 -3 3 -6 2 -6 -3z"/>
<path d="M2670 5766 c0 -2 7 -7 16 -10 8 -3 12 -2 9 4 -6 10 -25 14 -25 6z"/>
<path d="M2360 5740 c-6 -11 -8 -20 -6 -20 3 0 10 9 16 20 6 11 8 20 6 20 -3
0 -10 -9 -16 -20z"/>
<path d="M2651 5743 c-1 -16 5 -23 17 -23 10 0 13 3 6 8 -6 4 -14 14 -17 22
-4 10 -6 8 -6 -7z"/>
<path d="M3070 5751 c0 -7 -9 -9 -25 -5 -18 4 -27 1 -31 -11 -6 -16 9 -34 28
-35 12 0 41 50 34 57 -3 3 -6 1 -6 -6z m-20 -19 c0 -13 -12 -22 -22 -16 -10 6
-1 24 13 24 5 0 9 -4 9 -8z"/>
<path d="M2393 5743 c4 -3 1 -13 -6 -22 -11 -14 -10 -14 6 -2 20 15 22 31 5
31 -6 0 -8 -3 -5 -7z"/>
<path d="M2704 5735 c-8 -21 6 -37 27 -32 11 3 19 0 19 -6 0 -6 6 -3 13 8 8
10 19 15 26 11 9 -6 9 -12 -1 -24 -12 -15 -11 -16 5 -3 9 7 17 17 17 21 0 14
-32 21 -45 10 -9 -8 -14 -5 -18 10 -6 23 -35 27 -43 5z m36 -10 c0 -8 -7 -15
-15 -15 -8 0 -15 7 -15 15 0 8 7 15 15 15 8 0 15 -7 15 -15z"/>
<path d="M2417 5723 c-14 -13 -6 -33 12 -33 23 0 47 25 31 35 -5 3 -10 -1 -10
-9 0 -9 -7 -16 -16 -16 -10 0 -14 6 -10 15 6 16 3 19 -7 8z"/>
<path d="M3092 5703 c-2 -25 -1 -26 14 -11 9 9 13 21 10 27 -12 19 -22 12 -24
-16z"/>
<path d="M2819 5698 c-11 -21 -11 -22 5 -9 15 13 19 13 27 0 5 -8 9 -9 9 -3 0
6 -6 17 -14 23 -12 10 -17 8 -27 -11z"/>
<path d="M2503 5690 c-7 -10 -9 -21 -5 -24 4 -2 12 7 19 20 13 29 3 32 -14 4z"/>
<path d="M3060 5700 c0 -5 5 -10 10 -10 6 0 10 5 10 10 0 6 -4 10 -10 10 -5 0
-10 -4 -10 -10z"/>
<path d="M3157 5693 c-3 -5 -1 -17 3 -27 4 -14 9 -16 14 -8 4 7 5 16 2 21 -4
5 0 12 6 14 8 4 7 6 -4 6 -9 1 -19 -2 -21 -6z"/>
<path d="M2535 5679 c-11 -16 -1 -19 13 -3 7 8 8 14 3 14 -5 0 -13 -5 -16 -11z"/>
<path d="M2896 5675 c4 -8 11 -15 16 -15 6 0 5 6 -2 15 -7 8 -14 15 -16 15 -2
0 -1 -7 2 -15z"/>
<path d="M2587 5673 c10 -3 10 -10 2 -26 -10 -21 -9 -21 5 -3 16 20 13 37 -7
35 -9 0 -9 -2 0 -6z"/>
<path d="M2865 5670 c-8 -13 3 -30 18 -29 8 0 7 3 -2 6 -10 4 -10 7 -1 13 8 5
9 10 2 14 -6 3 -13 2 -17 -4z"/>
<path d="M3223 5673 c4 -3 1 -13 -6 -21 -10 -13 -9 -14 3 -10 19 6 26 38 9 38
-7 0 -9 -3 -6 -7z"/>
<path d="M2620 5651 c-13 -25 -13 -42 1 -18 11 18 39 24 39 7 0 -5 -8 -14 -17
-19 -10 -6 -13 -11 -7 -11 12 0 34 20 34 32 0 4 -9 12 -20 18 -15 8 -21 6 -30
-9z"/>
<path d="M2925 5650 c-8 -13 3 -30 18 -30 8 0 7 3 -2 9 -7 5 -10 14 -7 20 4 6
5 11 2 11 -3 0 -8 -4 -11 -10z"/>
<path d="M3246 5644 c-8 -21 -8 -21 14 -27 14 -4 24 1 31 16 9 18 9 20 -2 10
-18 -18 -32 -16 -25 2 3 8 1 15 -3 15 -5 0 -12 -7 -15 -16z"/>
<path d="M3337 5642 c-32 -4 -47 -29 -26 -43 21 -13 25 -11 44 17 19 30 19 31
-18 26z m3 -22 c0 -5 -7 -10 -15 -10 -8 0 -15 5 -15 10 0 6 7 10 15 10 8 0 15
-4 15 -10z"/>
<path d="M2697 5633 c9 -3 10 -10 3 -24 -6 -11 -7 -19 -1 -19 12 0 23 29 15
41 -3 5 -11 9 -17 8 -9 0 -9 -2 0 -6z"/>
<path d="M3002 5628 c-7 -7 -12 -17 -12 -22 0 -6 5 -3 11 7 13 22 33 23 25 1
-6 -14 -4 -15 9 -4 13 11 13 15 3 21 -17 12 -22 11 -36 -3z"/>
<path d="M2732 5610 c-18 -29 -15 -38 4 -12 9 13 14 25 12 27 -2 2 -9 -5 -16
-15z"/>
<path d="M2755 5603 c-10 -16 -12 -22 -4 -15 20 19 32 14 26 -10 -6 -23 -6
-23 9 -3 13 17 13 21 -1 31 -8 6 -12 14 -8 17 3 4 4 7 1 7 -3 0 -14 -12 -23
-27z"/>
<path d="M3056 5605 c-9 -26 -7 -32 5 -12 6 10 9 21 6 23 -2 3 -7 -2 -11 -11z"/>
<path d="M3364 5606 c-7 -17 2 -36 17 -36 6 0 7 5 4 10 -3 6 1 10 10 10 9 0
15 6 13 13 -7 18 -37 21 -44 3z"/>
<path d="M3080 5595 c-13 -16 -6 -35 13 -34 9 0 9 2 0 6 -21 8 -15 22 7 16 14
-4 20 0 20 11 0 20 -23 21 -40 1z"/>
<path d="M2803 5574 c-3 -8 -2 -19 3 -24 5 -5 9 1 9 16 0 28 -3 30 -12 8z"/>
<path d="M2837 5570 c3 -11 7 -20 9 -20 2 0 4 9 4 20 0 11 -4 20 -9 20 -5 0
-7 -9 -4 -20z"/>
<path d="M3129 5568 c-12 -23 -12 -23 10 -4 23 21 26 26 11 26 -5 0 -15 -10
-21 -22z"/>
<path d="M3166 5563 c-6 -14 -5 -15 5 -6 7 7 10 15 7 18 -3 3 -9 -2 -12 -12z"/>
<path d="M3190 5550 c-6 -11 -9 -20 -8 -20 2 0 11 9 21 20 9 11 13 20 7 20 -5
0 -14 -9 -20 -20z"/>
<path d="M3220 5530 c0 -11 4 -20 9 -20 5 0 7 9 4 20 -3 11 -7 20 -9 20 -2 0
-4 -9 -4 -20z"/>
<path d="M3257 5531 c-4 -17 -3 -21 5 -13 5 5 8 16 6 23 -3 8 -7 3 -11 -10z"/>
<path d="M3307 5513 c-4 -3 -7 -13 -7 -22 1 -13 3 -13 11 2 11 19 8 33 -4 20z"/>
<path d="M3341 5504 c0 -11 3 -14 6 -6 3 7 2 16 -1 19 -3 4 -6 -2 -5 -13z"/>
<path d="M5068 6623 c-3 -31 -10 -59 -16 -61 -7 -2 -12 -8 -12 -13 0 -5 -16
-33 -35 -62 -19 -28 -35 -58 -35 -65 0 -8 -14 -28 -32 -45 -17 -18 -76 -97
-130 -176 -54 -79 -108 -149 -120 -155 -31 -16 -205 -273 -222 -328 -8 -26
-32 -71 -54 -100 -21 -29 -81 -116 -134 -193 -109 -162 -317 -465 -439 -643
-123 -180 -317 -464 -331 -487 -7 -11 -25 -31 -40 -46 -16 -15 -28 -32 -28
-39 0 -6 -51 -87 -114 -178 -62 -92 -116 -180 -120 -195 -4 -15 -11 -25 -16
-22 -5 3 -25 -19 -45 -50 -68 -102 -169 -171 -286 -196 -100 -21 -119 -16
-774 226 -99 37 -236 87 -305 112 -69 25 -199 72 -290 105 -295 109 -381 138
-376 130 3 -5 25 -16 48 -25 24 -8 147 -54 273 -100 127 -47 338 -124 470
-172 132 -47 326 -118 430 -157 504 -185 572 -203 697 -178 119 23 210 87 258
180 10 20 26 42 34 49 9 8 16 17 16 22 0 9 16 32 135 199 41 58 82 119 91 135
9 17 30 46 45 65 16 19 29 40 29 46 0 6 6 17 14 23 14 12 96 128 131 187 11
18 55 84 98 148 42 63 77 117 77 121 0 3 9 16 21 28 11 12 34 45 50 72 46 78
52 87 77 114 12 14 22 30 22 35 0 5 7 16 15 25 9 9 45 61 82 116 36 55 68 102
72 105 3 3 24 32 46 65 22 33 42 62 45 65 6 6 24 35 46 73 13 25 103 151 149
212 18 23 90 126 153 218 68 99 142 217 142 225 0 5 14 21 30 37 17 16 30 33
30 37 0 5 8 21 19 36 10 15 35 54 56 87 21 33 48 72 60 87 12 14 39 61 59 103
32 65 37 82 31 118 -4 23 -13 53 -20 67 -16 30 -52 70 -64 70 -5 0 -11 -26
-13 -57z m-358 -599 c0 -5 -47 -74 -168 -247 -30 -43 -56 -76 -59 -73 -2 2 0
14 6 25 10 17 138 205 190 278 15 21 31 30 31 17z"/>
<path d="M7455 5991 c-64 -94 -119 -172 -123 -174 -4 -2 -83 24 -177 59 -93
35 -177 63 -185 63 -13 1 -286 -386 -278 -394 2 -1 82 -32 178 -67 123 -45
175 -68 174 -79 -1 -8 -47 -82 -104 -164 -57 -82 -103 -156 -104 -164 -1 -10
62 -37 202 -88 112 -40 207 -71 212 -68 4 2 58 79 120 170 63 91 118 165 124
165 6 0 90 -29 186 -64 111 -41 179 -61 186 -55 6 5 26 42 45 81 31 66 34 82
34 163 0 99 -12 134 -68 192 -17 18 -29 34 -26 36 2 2 25 11 51 21 96 35 188
150 188 234 0 46 -22 94 -57 123 -18 15 -116 56 -234 99 -112 40 -209 75 -216
77 -6 3 -64 -72 -128 -166z m305 37 c25 -10 24 -10 -20 -33 -55 -28 -123 -99
-145 -151 -8 -20 -15 -56 -15 -80 0 -41 -1 -43 -22 -34 -13 4 -56 21 -95 35
l-73 27 101 148 101 149 72 -26 c39 -14 82 -30 96 -35z m202 -74 c74 -39 77
-155 6 -222 l-25 -22 -12 22 c-7 13 -30 37 -51 54 -44 35 -121 51 -191 39 -21
-4 -39 -3 -39 2 0 5 11 25 25 46 62 91 195 128 287 81z m-711 -178 c129 -46
227 -86 219 -89 -8 -2 -42 -12 -75 -22 -84 -24 -173 -76 -241 -140 -32 -30
-62 -55 -67 -55 -8 0 -297 100 -305 106 -2 1 41 67 95 148 84 124 101 145 119
141 12 -3 127 -43 255 -89z m578 -32 c52 -43 36 -84 -31 -84 -46 0 -96 20
-120 47 -17 18 -17 20 2 41 31 33 108 31 149 -4z m-206 -110 c20 -4 37 -11 37
-16 0 -11 -189 -288 -197 -288 -12 0 -289 103 -297 111 -13 11 15 42 87 95
107 79 251 117 370 98z m148 -57 c77 -52 130 -168 114 -250 -13 -63 -37 -127
-48 -127 -21 0 -307 104 -307 112 0 12 191 288 200 288 4 0 22 -10 41 -23z
m-516 -238 c61 -22 125 -46 143 -53 l32 -12 -100 -146 -101 -147 -112 40 c-62
23 -131 48 -155 56 -26 9 -41 20 -39 27 3 7 47 74 98 149 68 98 98 135 109
131 8 -3 65 -23 125 -45z"/>
<path d="M8503 5679 c-40 -12 -83 -62 -83 -99 0 -21 11 -38 40 -63 22 -19 40
-39 40 -45 0 -19 -38 -13 -59 9 -10 11 -37 23 -59 26 -35 5 -41 3 -47 -17 -15
-46 65 -110 138 -110 71 0 129 37 142 93 7 25 1 34 -45 76 -41 38 -49 49 -36
54 20 8 43 0 50 -19 4 -9 21 -14 51 -14 41 0 45 2 45 24 0 34 -36 74 -78 86
-43 12 -56 11 -99 -1z"/>
<path d="M8713 5513 c-13 -2 -23 -7 -23 -11 1 -17 29 -42 47 -42 21 0 50 -26
40 -36 -3 -3 -22 -1 -42 6 -91 30 -187 -49 -127 -103 10 -10 30 -17 43 -17 14
0 44 -9 67 -20 22 -11 45 -20 50 -20 10 0 94 122 105 153 22 58 -68 108 -160
90z m27 -138 c0 -9 -9 -15 -25 -15 -24 0 -32 10 -18 23 12 13 43 7 43 -8z"/>
<path d="M9075 5476 l-30 -24 30 -12 c26 -10 37 -8 75 11 l45 22 -30 13 c-43
19 -56 17 -90 -10z"/>
<path d="M8899 5382 c-58 -85 -65 -106 -45 -137 14 -21 25 -25 62 -25 25 0 43
-4 40 -9 -6 -9 44 -31 68 -31 13 0 136 172 136 189 0 5 -16 15 -37 22 -31 10
-38 9 -47 -4 -6 -8 -26 -36 -44 -62 -21 -30 -39 -45 -50 -43 -29 6 -25 34 14
88 20 28 35 52 33 54 -5 4 -71 26 -78 26 -3 0 -27 -30 -52 -68z"/>
<path d="M9387 5353 c-34 -57 -31 -56 -71 -32 -46 27 -93 21 -142 -16 -86 -66
-83 -185 4 -185 15 0 45 -9 67 -20 22 -11 45 -20 51 -20 11 0 200 268 192 274
-5 4 -70 26 -77 26 -4 0 -14 -12 -24 -27z m-99 -130 c4 -26 -29 -47 -58 -38
-23 7 -26 35 -8 53 20 20 63 10 66 -15z"/>
<path d="M8207 5250 c-8 -11 -20 -18 -28 -15 -8 3 -23 -9 -37 -30 -12 -19 -18
-35 -12 -35 16 0 12 -19 -15 -58 -31 -45 -32 -73 -2 -99 37 -34 64 -35 87 -3
23 32 25 46 8 53 -23 8 15 62 41 59 14 -1 30 7 42 20 23 28 24 44 4 52 -12 4
-14 10 -5 25 14 27 13 28 -14 35 -13 3 -31 8 -39 12 -9 3 -21 -3 -30 -16z"/>
<path d="M9487 5226 c-48 -17 -71 -38 -91 -81 -23 -48 -20 -63 18 -101 30 -30
40 -34 88 -34 69 0 83 9 62 38 -9 14 -26 22 -43 22 -28 0 -60 24 -48 36 3 3
35 -4 72 -16 36 -12 72 -20 79 -17 22 9 38 70 27 100 -20 52 -98 77 -164 53z
m80 -71 c3 -9 3 -18 1 -20 -8 -9 -68 17 -62 26 9 15 54 10 61 -6z"/>
<path d="M8295 5075 c-36 -51 -65 -96 -65 -100 0 -11 72 -37 79 -28 4 4 24 30
46 57 34 44 41 48 71 43 29 -5 35 -2 59 35 l27 40 -41 -4 c-31 -3 -40 0 -38
11 1 8 -13 19 -35 27 l-37 13 -66 -94z"/>
<path d="M10018 5110 l-27 -38 -38 19 c-70 36 -157 -3 -194 -87 -29 -65 -2
-114 63 -114 13 0 41 -9 63 -20 22 -11 44 -20 50 -20 6 0 52 61 103 135 l93
136 -35 14 c-47 20 -47 20 -78 -25z m-91 -106 c9 -23 -30 -58 -56 -49 -23 7
-28 34 -9 53 17 17 58 15 65 -4z"/>
<path d="M8552 5080 c-18 -3 -33 -8 -33 -13 0 -17 17 -33 45 -42 16 -6 31 -16
34 -23 3 -10 -4 -12 -34 -5 -86 17 -154 -10 -154 -62 0 -28 30 -55 61 -55 14
0 42 -9 64 -20 22 -11 45 -20 52 -20 14 0 97 121 107 157 15 49 -65 96 -142
83z m8 -135 c0 -9 -7 -18 -16 -22 -18 -7 -39 11 -30 26 11 17 46 13 46 -4z"/>
<path d="M8738 4968 c-46 -67 -88 -129 -92 -136 -7 -12 30 -32 69 -35 11 -1
28 -10 37 -19 21 -21 87 -24 121 -7 62 32 105 104 93 154 -7 28 -52 55 -91 55
l-25 0 26 40 c30 45 26 56 -22 66 -31 6 -33 3 -116 -118z m121 -72 c28 -34
-35 -74 -67 -43 -14 15 -14 18 3 37 21 23 48 26 64 6z"/>
<path d="M10125 4995 c-108 -38 -141 -156 -55 -200 106 -55 261 47 220 145
-23 55 -96 79 -165 55z m68 -87 c15 -23 -8 -48 -44 -48 -24 0 -29 4 -29 25 0
41 52 58 73 23z"/>
<path d="M9255 4783 c-48 -70 -89 -132 -92 -139 -5 -13 51 -39 70 -31 10 4
149 199 181 254 4 8 -6 18 -30 28 -20 8 -38 15 -40 15 -1 0 -42 -57 -89 -127z"/>
<path d="M7919 4871 c-33 -34 -37 -61 -11 -84 20 -18 82 -23 82 -7 0 6 -9 10
-19 10 -33 0 -51 11 -51 31 0 23 -3 23 51 4 49 -18 64 -15 72 14 16 61 -72 84
-124 32z m99 -20 c3 -19 0 -22 -13 -17 -9 3 -28 9 -41 12 -43 11 -26 37 21 32
23 -2 31 -9 33 -27z"/>
<path d="M9041 4892 c-20 -14 3 -50 36 -54 18 -2 29 -10 31 -22 3 -15 0 -17
-14 -11 -11 4 -40 10 -66 12 -42 5 -50 2 -78 -25 -16 -17 -30 -37 -30 -46 0
-23 41 -56 70 -56 14 0 45 -9 68 -20 24 -12 46 -19 50 -16 4 2 29 36 55 75 55
80 58 112 15 144 -29 22 -115 33 -137 19z m39 -132 c0 -6 -7 -13 -15 -16 -20
-8 -48 3 -40 16 8 13 55 13 55 0z"/>
<path d="M9371 4725 l-92 -134 37 -16 c48 -20 47 -20 67 15 28 47 68 90 83 90
29 0 25 -29 -10 -82 -20 -29 -36 -55 -36 -59 0 -6 80 -32 85 -27 1 2 23 34 49
73 60 90 62 129 10 151 -20 8 -45 12 -57 8 -21 -7 -21 -6 -2 22 10 16 24 38
31 48 12 18 11 21 -17 33 -17 7 -37 13 -43 13 -7 0 -54 -61 -105 -135z"/>
<path d="M8165 4820 c-3 -6 4 -10 18 -10 29 0 49 -20 38 -38 -5 -8 -16 -9 -41
-2 -54 16 -101 -25 -68 -58 7 -7 21 -12 33 -12 12 0 26 -5 32 -11 13 -13 73
69 73 101 0 29 -70 54 -85 30z m13 -66 c27 -8 28 -20 2 -34 -28 -15 -67 5 -49
26 13 16 15 16 47 8z"/>
<path d="M8363 4730 c-53 -32 -57 -91 -8 -110 29 -11 75 -3 75 12 0 6 -10 8
-22 5 -30 -8 -58 10 -58 37 0 47 60 69 96 35 26 -24 38 -22 28 5 -6 17 -43 36
-67 36 -7 0 -27 -9 -44 -20z"/>
<path d="M8503 4680 c-84 -51 -30 -148 59 -106 61 29 74 97 21 117 -34 13 -44
12 -80 -11z m72 -13 c25 -19 13 -60 -21 -76 -22 -10 -31 -9 -50 4 -30 20 -30
30 1 60 27 28 43 31 70 12z"/>
<path d="M13015 4670 c-3 -5 -11 -7 -18 -4 -13 5 -117 -134 -117 -155 0 -6 -4
-11 -9 -11 -4 0 -21 -19 -36 -42 -56 -85 -90 -133 -101 -146 -7 -6 -16 -22
-20 -34 -3 -12 -17 -33 -30 -47 -13 -14 -24 -29 -24 -34 0 -4 -13 -22 -30 -40
-16 -18 -30 -36 -30 -40 0 -5 -11 -23 -25 -41 -14 -18 -25 -38 -25 -44 0 -7
-4 -12 -8 -12 -4 0 -23 -25 -41 -54 -18 -30 -36 -56 -39 -58 -4 -2 -20 -23
-37 -48 -16 -25 -32 -47 -35 -50 -15 -14 -75 -116 -72 -123 1 -5 -1 -6 -6 -3
-5 3 -19 -14 -32 -37 -13 -23 -28 -46 -32 -52 -30 -35 -98 -136 -98 -145 0 -5
-5 -10 -10 -10 -6 0 -18 -16 -27 -35 -9 -19 -20 -35 -25 -35 -4 0 -8 -7 -8
-15 0 -9 -10 -26 -22 -39 -25 -25 -44 -52 -55 -76 -4 -8 -11 -19 -15 -25 -5
-5 -20 -23 -33 -40 -14 -16 -28 -40 -31 -52 -4 -13 -10 -23 -14 -23 -7 0 -115
-153 -139 -198 -8 -15 -18 -28 -23 -30 -4 -2 -8 -10 -8 -18 0 -8 -4 -14 -10
-14 -5 0 -10 -7 -10 -15 0 -8 -3 -15 -7 -15 -5 0 -21 -21 -38 -48 -16 -26 -32
-49 -36 -52 -3 -3 -13 -18 -22 -35 -8 -16 -23 -40 -34 -52 -24 -29 -55 -70
-67 -93 -12 -21 -71 -109 -83 -125 -45 -56 -173 -245 -166 -245 5 0 -48 -69
-79 -104 -10 -11 -18 -26 -18 -33 0 -7 -4 -13 -10 -13 -5 0 -10 -6 -10 -14 0
-7 -7 -20 -17 -27 -9 -8 -22 -29 -30 -47 -7 -18 -18 -30 -24 -27 -5 4 -9 3 -8
-2 2 -14 -13 -53 -20 -53 -4 0 -38 -46 -76 -102 -38 -57 -77 -113 -88 -126
-11 -12 -16 -22 -11 -22 5 0 5 -4 -1 -8 -16 -12 -75 -90 -75 -100 0 -5 -13
-27 -30 -48 -69 -90 -110 -151 -110 -163 0 -6 -4 -11 -9 -11 -5 0 -14 -14 -21
-31 -8 -19 -18 -28 -27 -25 -8 4 -11 1 -8 -5 4 -6 0 -18 -8 -27 -9 -9 -17 -23
-19 -31 -2 -8 -15 -27 -30 -43 -16 -15 -28 -33 -28 -40 0 -8 -9 -20 -20 -28
-11 -8 -20 -20 -20 -26 0 -6 -11 -23 -25 -38 -14 -15 -25 -31 -25 -35 0 -4
-15 -28 -32 -52 -48 -65 -78 -109 -78 -115 0 -13 -59 -82 -65 -76 -5 4 -5 1
-1 -6 4 -7 -4 -24 -22 -42 -17 -16 -40 -50 -52 -74 -12 -25 -32 -56 -46 -68
-13 -13 -24 -29 -24 -36 0 -20 -31 -62 -41 -57 -5 3 -11 -7 -15 -22 -4 -15
-10 -30 -13 -33 -17 -15 -101 -191 -101 -214 0 -8 148 -19 173 -12 13 3 29 16
35 28 7 13 20 35 30 49 56 83 72 109 72 114 0 3 5 11 10 18 6 7 29 37 50 67
22 30 47 64 55 75 8 11 42 61 75 110 33 50 85 126 115 170 31 44 75 109 100
145 24 36 66 97 94 135 27 39 80 116 118 173 37 57 88 130 113 163 25 33 54
75 65 94 12 18 29 43 39 54 11 12 24 30 30 40 18 30 47 72 93 133 24 31 43 59
43 62 0 2 24 39 53 82 28 42 60 90 69 105 9 15 30 46 47 70 17 23 31 48 31 56
0 7 5 13 10 13 6 0 10 6 10 13 0 8 9 22 20 32 11 10 20 23 20 29 0 6 12 22 25
35 14 13 25 27 25 33 0 10 48 77 67 93 6 6 20 24 30 42 31 55 143 226 184 283
22 30 65 93 97 140 31 47 59 87 62 90 8 7 90 131 90 137 0 3 51 74 78 108 4 6
18 28 32 50 13 22 43 66 67 98 24 31 43 62 43 67 0 6 5 10 10 10 6 0 10 7 10
15 0 8 5 15 10 15 6 0 10 6 10 13 0 6 32 54 70 105 39 51 79 110 90 130 11 20
39 62 61 92 22 30 62 87 89 127 27 40 54 78 60 85 13 16 73 110 102 161 12 20
26 37 30 37 5 0 16 15 24 33 8 17 48 79 89 137 42 58 81 116 88 130 6 14 19
32 27 41 8 9 26 36 40 59 14 23 35 54 47 69 13 14 22 30 20 35 -3 8 -129 56
-148 56 -4 0 -10 -4 -14 -10z"/>
<path d="M9665 4660 c-10 -16 18 -49 45 -52 14 -2 26 -10 28 -21 3 -15 0 -16
-23 -7 -52 20 -104 12 -136 -19 -16 -16 -29 -36 -29 -45 0 -24 51 -58 82 -54
15 3 29 1 30 -3 2 -5 20 -15 41 -24 l37 -15 51 77 c59 90 60 116 10 150 -35
24 -124 33 -136 13z m45 -130 c0 -6 -7 -13 -15 -16 -20 -8 -48 3 -40 16 8 13
55 13 55 0z"/>
<path d="M8655 4648 c-26 -80 -31 -128 -11 -128 22 0 139 95 122 98 -9 2 -37
-14 -63 -35 l-46 -38 6 31 c3 18 9 43 13 58 6 26 -12 39 -21 14z"/>
<path d="M8830 4640 c0 -5 5 -10 10 -10 6 0 10 5 10 10 0 6 -4 10 -10 10 -5 0
-10 -4 -10 -10z"/>
<path d="M10110 4624 c0 -5 -14 -25 -29 -44 -29 -34 -29 -34 -50 -16 -64 58
-197 -10 -217 -110 -9 -44 30 -87 79 -88 20 -1 37 -4 37 -8 0 -7 56 -28 75
-28 12 0 185 252 185 269 0 5 -11 12 -24 15 -13 3 -31 9 -40 12 -9 3 -16 2
-16 -2z m-115 -134 c22 -36 -42 -77 -73 -47 -14 15 -14 18 3 37 19 21 60 27
70 10z"/>
<path d="M8768 4552 c-39 -61 -44 -72 -29 -72 10 0 81 105 81 120 0 22 -17 7
-52 -48z"/>
<path d="M8990 4583 c0 -5 -7 -16 -15 -27 -13 -17 -15 -17 -30 -2 -44 44 -139
-3 -133 -66 2 -26 9 -34 33 -41 17 -5 38 -13 47 -18 14 -7 28 5 72 69 60 83
64 92 41 92 -8 0 -15 -3 -15 -7z m-60 -48 c30 -36 -38 -94 -79 -68 -24 15 -25
39 -2 62 25 25 63 27 81 6z"/>
<path d="M9205 4515 c-5 -2 -22 -6 -37 -9 -16 -4 -28 -11 -28 -17 0 -6 9 -8
20 -4 26 8 25 -3 -3 -45 -58 -86 -60 -90 -45 -90 12 0 36 31 102 132 16 25 13
39 -9 33z"/>
<path d="M8990 4474 c0 -3 16 -12 35 -20 42 -17 69 -8 34 12 -24 13 -69 19
-69 8z"/>
<path d="M9249 4451 c-34 -35 -36 -44 -9 -71 26 -26 26 -25 -10 -40 -29 -12
-41 -30 -20 -30 16 0 91 39 128 67 23 17 32 32 32 53 0 56 -73 68 -121 21z
m89 -23 c3 -22 -2 -30 -22 -39 -47 -22 -83 15 -50 52 27 30 68 22 72 -13z"/>
<path d="M10165 4461 c-48 -29 -67 -57 -72 -104 -5 -39 -2 -46 27 -70 26 -22
41 -27 88 -27 67 0 112 23 142 72 29 47 25 75 -14 114 -30 30 -40 34 -87 34
-35 0 -65 -7 -84 -19z m102 -77 c9 -23 -30 -58 -56 -49 -23 7 -28 34 -9 53 17
17 58 15 65 -4z"/>
<path d="M10382 4317 c-34 -50 -62 -95 -62 -99 0 -3 17 -12 37 -19 36 -11 38
-11 58 17 45 64 72 84 103 78 24 -5 33 -1 51 24 31 44 28 56 -13 49 -26 -4
-34 -2 -30 7 3 8 -10 17 -34 24 -22 7 -41 12 -43 12 -2 0 -32 -42 -67 -93z"/>
<path d="M1126 4201 c-8 -12 21 -34 34 -26 8 5 8 11 -1 21 -13 16 -25 18 -33
5z"/>
<path d="M1195 4180 c-8 -13 3 -30 21 -30 18 0 18 14 0 29 -10 8 -16 9 -21 1z"/>
<path d="M1260 4146 c0 -14 24 -29 33 -19 3 3 3 11 0 19 -7 18 -33 18 -33 0z"/>
<path d="M1330 4121 c0 -12 6 -21 16 -21 9 0 14 7 12 17 -5 25 -28 28 -28 4z"/>
<path d="M1395 4100 c-3 -6 1 -13 10 -16 19 -8 30 0 20 15 -8 14 -22 14 -30 1z"/>
<path d="M1465 4080 c-8 -13 3 -30 21 -30 18 0 18 14 0 29 -10 8 -16 9 -21 1z"/>
<path d="M1760 3965 c0 -19 5 -25 23 -25 13 0 63 -13 111 -30 85 -28 87 -29
84 -9 -2 16 -24 29 -93 55 -110 41 -125 42 -125 9z"/>
<path d="M5605 3908 c-102 -56 -93 -158 13 -158 52 0 54 22 2 30 -45 7 -60 32
-40 67 22 40 64 52 102 30 36 -21 48 -21 48 -3 0 37 -81 59 -125 34z"/>
<path d="M5752 3823 c-17 -7 -5 -23 18 -23 21 0 34 -15 25 -29 -3 -6 -17 -6
-35 1 -24 8 -36 7 -55 -6 -44 -29 -28 -55 41 -70 27 -6 33 -3 57 32 22 30 37
82 24 82 -1 0 -16 4 -32 8 -17 5 -36 7 -43 5z m15 -87 c-6 -17 -47 -20 -47 -3
0 9 6 17 13 20 18 6 38 -4 34 -17z"/>
<path d="M2240 3790 c0 -11 7 -20 15 -20 8 0 15 6 15 14 0 8 -7 16 -15 20 -10
4 -15 -1 -15 -14z"/>
<path d="M5846 3734 c-40 -60 -42 -64 -22 -64 7 0 25 15 40 34 16 21 36 36 53
38 14 2 29 9 31 17 3 10 -1 12 -17 8 -11 -3 -21 -2 -21 3 0 4 -6 10 -14 13 -9
4 -27 -14 -50 -49z"/>
<path d="M2306 3771 c-7 -10 22 -37 30 -28 9 8 -3 37 -15 37 -5 0 -12 -4 -15
-9z"/>
<path d="M5983 3756 c-13 -6 -23 -17 -23 -25 0 -7 -9 -29 -21 -48 -17 -27 -19
-36 -9 -48 20 -24 43 -19 37 8 -7 25 22 67 46 67 11 0 15 9 15 30 -1 32 -9 35
-45 16z"/>
<path d="M2375 3750 c-8 -13 3 -30 21 -30 18 0 18 14 0 29 -10 8 -16 9 -21 1z"/>
<path d="M6090 3744 c0 -17 22 -14 28 4 2 7 -3 12 -12 12 -9 0 -16 -7 -16 -16z"/>
<path d="M6108 3667 c-52 -79 -55 -87 -34 -87 13 0 106 131 106 150 0 28 -30
2 -72 -63z"/>
<path d="M2440 3716 c0 -15 24 -28 34 -19 7 7 -13 33 -25 33 -5 0 -9 -6 -9
-14z"/>
<path d="M6036 3672 c-38 -52 -44 -72 -23 -72 18 0 81 100 69 112 -6 6 -23 -9
-46 -40z"/>
<path d="M6197 3688 c-59 -79 -80 -119 -69 -130 7 -7 18 2 37 31 20 29 35 41
51 41 30 0 30 -13 3 -57 -15 -23 -18 -38 -11 -45 11 -11 72 69 72 94 0 19 -21
38 -42 38 -21 0 -23 11 -6 28 9 9 9 15 1 23 -8 8 -18 1 -36 -23z"/>
<path d="M2510 3691 c0 -12 6 -21 16 -21 9 0 14 7 12 17 -5 25 -28 28 -28 4z"/>
<path d="M2570 3671 c0 -5 6 -14 14 -20 16 -13 32 2 21 19 -8 12 -35 13 -35 1z"/>
<path d="M6330 3601 c0 -5 10 -11 23 -13 12 -2 22 -10 22 -18 0 -11 -10 -14
-43 -12 -44 4 -72 -10 -72 -34 0 -16 23 -29 67 -38 28 -7 34 -4 57 31 29 43
33 78 10 87 -24 9 -64 7 -64 -3z m20 -76 c0 -9 -9 -15 -25 -15 -16 0 -25 6
-25 15 0 9 9 15 25 15 16 0 25 -6 25 -15z"/>
<path d="M6455 3559 c-4 -6 -4 -13 -1 -16 8 -8 36 5 36 17 0 13 -27 13 -35 -1z"/>
<path d="M5284 3478 c-4 -6 1 -17 11 -24 16 -12 14 -17 -24 -71 -45 -65 -48
-73 -26 -73 8 0 33 27 56 61 35 52 44 60 64 55 22 -6 44 9 32 20 -3 3 -28 14
-55 24 -37 14 -53 16 -58 8z"/>
<path d="M6401 3476 c-9 -10 -9 -16 -1 -21 17 -10 37 12 24 25 -8 8 -15 6 -23
-4z"/>
<path d="M5355 3338 c-25 -38 -31 -54 -22 -60 7 -5 18 0 27 14 27 41 50 58 75
58 16 0 25 6 25 16 0 11 -6 14 -20 9 -11 -4 -20 -2 -20 4 0 27 -33 6 -65 -41z"/>
<path d="M5638 3343 c-34 -40 -98 -143 -88 -143 19 0 25 -2 45 -16 29 -21 60
-17 95 12 40 34 38 72 -5 94 -16 8 -32 16 -34 17 -2 2 2 10 9 18 19 23 -2 41
-22 18z m40 -86 c9 -10 7 -19 -4 -35 -18 -26 -46 -29 -64 -7 -10 13 -10 19 5
35 21 23 48 26 63 7z"/>
<path d="M5480 3340 c0 -5 9 -10 20 -10 11 0 23 -7 27 -15 8 -22 1 -26 -33
-16 -38 11 -74 -3 -74 -28 0 -22 10 -31 57 -47 32 -11 33 -11 63 36 35 55 37
66 11 80 -25 13 -71 13 -71 0z m28 -72 c-7 -20 -58 -23 -58 -4 0 11 10 16 31
16 20 0 29 -4 27 -12z"/>
<path d="M5767 3243 c-4 -4 6 -12 23 -19 45 -19 38 -35 -12 -28 -54 7 -89 -14
-72 -43 6 -10 22 -20 35 -21 13 -2 28 -8 34 -13 5 -5 12 -9 17 -9 11 0 58 84
58 103 0 27 -64 50 -83 30z m19 -74 c7 -12 -15 -31 -31 -26 -5 2 -11 11 -13
20 -4 19 32 24 44 6z"/>
<path d="M5886 3186 c-55 -77 -63 -96 -44 -96 12 0 118 139 118 155 0 3 -6 5
-14 5 -8 0 -35 -29 -60 -64z"/>
<path d="M5940 3155 c-27 -41 -50 -77 -50 -80 0 -15 30 -2 43 19 23 34 47 56
62 56 24 0 24 -27 -1 -63 -28 -42 -29 -47 -9 -47 21 0 67 74 63 102 -2 16 -11
24 -31 28 -26 5 -27 6 -13 25 19 25 20 35 1 35 -8 0 -37 -34 -65 -75z"/>
<path d="M5092 3184 c-29 -20 -44 -50 -37 -73 7 -22 58 -46 80 -37 24 9 17 24
-12 28 -17 2 -29 10 -31 20 -3 17 -1 17 43 0 40 -15 47 -15 55 -2 13 21 12 54
-2 68 -17 17 -69 15 -96 -4z m68 -19 c18 -22 8 -27 -26 -15 -23 9 -25 13 -14
20 20 13 26 12 40 -5z"/>
<path d="M5212 3109 c-22 -36 -29 -56 -22 -63 5 -5 11 -8 13 -5 42 59 61 79
78 79 24 0 24 -18 -1 -50 -11 -14 -20 -31 -20 -37 0 -25 26 -11 52 27 15 22
32 40 38 40 21 0 21 -30 1 -59 -22 -31 -27 -51 -12 -51 17 0 72 84 69 105 -2
14 -12 21 -33 23 -16 2 -37 10 -45 17 -8 7 -31 16 -50 19 -34 6 -36 4 -68 -45z"/>
<path d="M6107 3124 c-10 -11 3 -24 24 -24 10 0 19 -7 19 -15 0 -11 -9 -13
-43 -9 -32 5 -46 2 -56 -9 -19 -24 -9 -51 19 -55 14 -2 31 -9 38 -14 16 -14
42 9 68 58 l19 36 -24 19 c-23 19 -52 25 -64 13z m13 -74 c13 -9 13 -11 0 -20
-28 -18 -60 -4 -45 20 8 13 26 13 45 0z"/>
<path d="M5548 3079 c-21 -11 -38 -26 -38 -35 0 -8 -11 -31 -25 -51 -23 -34
-25 -53 -5 -53 4 0 21 20 37 45 21 35 32 43 47 39 16 -5 18 -2 13 16 -4 17 -1
24 14 27 20 5 22 24 3 29 -5 2 -26 -6 -46 -17z"/>
<path d="M6345 3076 c-16 -23 -17 -24 -44 -8 -24 13 -32 14 -60 2 -66 -27 -81
-103 -23 -115 15 -4 35 -10 44 -16 15 -7 26 4 68 63 48 69 60 98 40 98 -5 0
-17 -11 -25 -24z m-56 -40 c16 -19 3 -45 -25 -52 -29 -7 -44 2 -44 26 0 33 48
51 69 26z"/>
<path d="M5592 3004 c-47 -33 -48 -94 -2 -109 28 -9 88 12 100 35 6 10 10 30
10 44 0 44 -64 61 -108 30z m76 -35 c4 -23 -26 -51 -52 -47 -25 4 -33 33 -15
54 16 19 63 14 67 -7z"/>
<path d="M6366 2998 c-52 -48 -37 -102 28 -102 45 0 86 36 86 75 0 50 -70 66
-114 27z m81 -24 c9 -23 -30 -58 -56 -49 -23 7 -28 34 -9 53 17 17 58 15 65
-4z"/>
<path d="M4934 2959 c-19 -21 -19 -21 11 -45 22 -17 27 -26 18 -35 -12 -12
-53 -3 -53 12 0 5 -7 9 -15 9 -25 0 -17 -19 16 -36 60 -30 110 23 57 60 -18
13 -20 18 -10 28 10 10 17 10 32 0 25 -15 30 -15 30 2 0 31 -59 35 -86 5z"/>
<path d="M6497 2925 c-44 -65 -31 -87 17 -30 19 22 41 38 56 39 29 1 40 26 11
26 -12 0 -21 5 -21 10 0 26 -31 5 -63 -45z"/>
<path d="M5754 2960 c-26 -10 -54 -48 -54 -71 0 -25 35 -51 66 -47 39 4 44 28
6 28 -36 0 -46 20 -26 49 18 25 41 27 63 7 12 -11 21 -12 31 -5 13 8 11 13 -9
29 -25 21 -43 24 -77 10z"/>
<path d="M5075 2930 c-3 -5 3 -10 13 -10 24 0 43 -22 34 -38 -6 -9 -17 -9 -45
0 -32 10 -40 9 -57 -7 -11 -10 -20 -21 -20 -24 1 -16 19 -32 41 -35 14 -1 31
-6 38 -10 7 -4 14 -6 15 -5 25 32 56 88 56 102 0 25 -62 48 -75 27z m14 -69
c21 -13 4 -31 -30 -31 -27 0 -39 17 -22 33 9 10 35 8 52 -2z"/>
<path d="M6630 2929 c-29 -12 -59 -47 -60 -71 0 -9 7 -24 16 -32 17 -18 84
-22 84 -6 0 6 -11 10 -24 10 -23 0 -54 25 -44 35 3 3 25 -2 49 -10 40 -15 45
-14 56 2 16 21 16 35 1 55 -18 22 -48 28 -78 17z m49 -33 c7 -8 8 -16 4 -19
-13 -8 -55 12 -48 23 9 14 31 12 44 -4z"/>
<path d="M5280 2915 c-14 -16 -10 -18 14 -9 9 3 16 10 16 15 0 14 -16 11 -30
-6z"/>
<path d="M5861 2894 c-38 -32 -41 -67 -6 -90 65 -43 163 48 107 99 -27 24 -66
21 -101 -9z m82 -18 c8 -19 -20 -56 -42 -56 -31 0 -43 23 -25 48 17 25 59 30
67 8z"/>
<path d="M5176 2860 c-14 -22 -26 -49 -26 -59 0 -22 34 -46 50 -36 6 3 10 1
10 -4 0 -25 27 -7 58 37 36 54 44 93 11 52 -50 -61 -60 -70 -79 -70 -32 0 -34
25 -6 67 14 21 26 41 26 45 0 19 -19 5 -44 -32z"/>
<path d="M6908 2870 c-38 -32 -78 -102 -78 -138 0 -26 18 -29 26 -4 13 45 50
105 81 132 18 16 33 32 33 35 0 14 -29 2 -62 -25z"/>
<path d="M6752 2874 c-29 -20 -28 -28 5 -59 22 -20 24 -25 10 -25 -9 0 -26 5
-37 12 -10 7 -22 9 -26 6 -13 -14 5 -36 35 -43 60 -13 95 36 49 68 -17 11 -20
18 -12 27 9 8 15 7 27 -4 20 -20 37 -20 37 -1 0 15 -29 35 -52 35 -8 0 -24 -7
-36 -16z"/>
<path d="M6027 2874 c-13 -13 -7 -24 14 -24 11 0 19 5 17 12 -5 14 -22 21 -31
12z"/>
<path d="M6136 2799 c-32 -47 -45 -74 -38 -81 6 -6 16 0 28 21 26 44 48 36 52
-17 4 -53 26 -52 30 0 2 29 8 37 27 42 29 7 48 39 40 66 -5 17 -52 40 -79 40
-6 0 -33 -32 -60 -71z m95 41 c38 -21 18 -60 -31 -60 -28 0 -34 18 -16 45 19
28 20 29 47 15z"/>
<path d="M5450 2829 c-14 -19 -17 -19 -43 -6 -15 8 -38 12 -51 10 -34 -7 -68
-47 -68 -79 0 -29 16 -44 49 -44 12 0 25 -5 28 -10 4 -6 11 -8 16 -4 20 12
109 154 97 154 -7 -1 -20 -10 -28 -21z m-59 -19 c23 -13 24 -37 2 -62 -18 -20
-68 -24 -78 -7 -12 18 4 55 27 67 29 14 26 14 49 2z"/>
<path d="M6978 2812 c-25 -5 -22 -20 4 -24 13 -2 24 -11 26 -20 3 -15 -1 -16
-28 -8 -41 12 -80 -3 -80 -29 0 -22 19 -35 67 -45 29 -7 33 -4 59 40 20 33 25
51 18 62 -12 18 -43 30 -66 24z m12 -83 c0 -14 -27 -22 -46 -15 -13 5 -14 9
-5 20 12 15 51 10 51 -5z"/>
<path d="M5965 2779 c-4 -6 -4 -13 -1 -16 8 -8 36 5 36 17 0 13 -27 13 -35 -1z"/>
<path d="M7238 2742 c-10 -28 -35 -66 -59 -89 -57 -57 -45 -75 15 -22 47 42
85 105 86 142 0 35 -26 16 -42 -31z"/>
<path d="M5485 2768 c-68 -37 -53 -118 22 -118 32 0 29 18 -3 22 -26 3 -54 31
-43 43 3 3 26 -2 49 -10 53 -19 70 -14 70 19 0 47 -48 70 -95 44z m65 -23 c21
-25 -1 -35 -40 -19 -27 12 -32 17 -20 24 22 14 46 12 60 -5z"/>
<path d="M6291 2756 c-21 -12 -50 -50 -51 -68 0 -4 10 -16 22 -28 22 -21 78
-28 78 -10 0 6 -9 10 -19 10 -33 0 -51 11 -51 32 0 12 5 18 13 15 84 -31 88
-32 97 -17 35 55 -27 100 -89 66z m69 -21 c21 -25 -1 -35 -40 -19 -27 12 -32
17 -20 24 22 14 46 12 60 -5z"/>
<path d="M7088 2759 c-24 -13 -23 -46 2 -61 11 -7 20 -16 20 -20 0 -12 -38
-10 -45 2 -9 15 -35 12 -35 -5 0 -30 73 -48 98 -23 18 18 14 46 -8 58 -11 6
-20 15 -20 20 0 6 9 10 20 10 11 0 20 -4 20 -10 0 -5 7 -10 15 -10 22 0 19 27
-4 40 -24 12 -41 12 -63 -1z"/>
<path d="M5667 2663 c-38 -56 -43 -90 -6 -43 11 14 27 33 34 43 19 22 65 23
65 1 0 -9 -10 -32 -21 -51 -12 -19 -18 -37 -14 -41 8 -8 40 32 56 71 14 33 -1
57 -35 57 -12 0 -26 4 -31 9 -6 6 -25 -12 -48 -46z"/>
<path d="M6435 2708 c-72 -39 -55 -125 23 -116 15 2 25 8 23 13 -2 6 -13 9
-23 7 -22 -4 -48 14 -48 34 0 20 37 54 59 54 11 0 27 -7 35 -16 9 -8 21 -14
28 -12 19 7 -29 48 -54 48 -13 0 -32 -6 -43 -12z"/>
<path d="M7467 2665 c-16 -23 -20 -24 -33 -10 -23 22 -59 18 -94 -11 -24 -21
-30 -33 -28 -57 3 -27 9 -33 50 -48 l46 -16 51 74 c45 67 55 94 33 93 -4 0
-15 -12 -25 -25z m-49 -48 c5 -25 -16 -47 -45 -47 -31 0 -40 26 -17 51 21 24
57 21 62 -4z"/>
<path d="M6546 2645 c-35 -32 -32 -73 6 -94 24 -14 30 -14 63 2 48 23 63 58
41 92 -22 34 -73 34 -110 0z m89 -30 c0 -55 -83 -75 -93 -22 -5 25 35 59 66
55 23 -2 27 -8 27 -33z"/>
<path d="M5809 2621 c-33 -33 -36 -52 -13 -75 42 -42 134 -5 134 54 0 35 -17
50 -58 50 -24 0 -42 -8 -63 -29z m96 -20 c0 -35 -46 -67 -74 -52 -44 24 -10
84 43 79 25 -2 31 -8 31 -27z"/>
<path d="M6686 2580 c-20 -27 -36 -55 -36 -60 0 -19 16 -10 32 18 26 44 54 65
77 57 27 -8 26 -22 -5 -68 -14 -21 -23 -41 -20 -44 9 -9 30 13 54 56 l23 40
-21 21 c-11 11 -25 18 -31 15 -5 -4 -16 -2 -23 4 -11 9 -22 1 -50 -39z"/>
<path d="M6836 2545 c-27 -42 -46 -79 -42 -82 3 -4 14 3 22 16 41 58 60 74 82
67 28 -9 28 -23 -3 -68 -28 -41 -30 -48 -15 -48 6 0 24 21 40 46 33 53 28 84
-15 84 -29 0 -30 3 -9 35 13 20 13 25 3 25 -8 0 -36 -34 -63 -75z"/>
<path d="M6062 2596 c-12 -6 -20 -17 -17 -24 3 -7 -6 -29 -19 -49 -25 -37 -25
-63 1 -63 10 0 13 6 9 15 -9 24 35 86 57 79 18 -6 24 10 7 21 -5 3 -7 12 -3
20 6 17 -2 17 -35 1z"/>
<path d="M7515 2600 c3 -5 15 -10 25 -10 21 0 34 -15 25 -29 -3 -6 -18 -6 -37
0 -24 6 -38 5 -56 -7 -34 -22 -24 -47 27 -63 44 -14 45 -14 68 15 30 37 39 70
23 89 -14 17 -85 21 -75 5z m25 -70 c0 -6 -7 -13 -15 -16 -20 -8 -48 3 -40 16
8 13 55 13 55 0z"/>
<path d="M6114 2508 c-46 -67 -46 -68 -32 -68 7 0 23 16 36 35 15 23 33 38 52
42 30 6 42 23 16 23 -8 0 -21 2 -29 5 -9 4 -24 -10 -43 -37z"/>
<path d="M7712 2539 c-33 -13 -39 -39 -14 -60 24 -19 29 -39 10 -39 -6 0 -20
8 -30 17 -25 23 -47 3 -22 -21 22 -22 83 -18 98 7 9 15 7 22 -11 37 -39 31
-25 54 17 28 23 -15 38 -4 21 16 -16 19 -42 25 -69 15z"/>
<path d="M6235 2509 c-20 -8 -20 -8 0 -8 30 -2 49 -17 42 -34 -5 -13 -12 -14
-41 -6 -42 12 -76 -2 -76 -31 0 -22 34 -44 56 -36 8 3 14 1 14 -4 0 -23 23 -7
50 36 22 35 27 51 20 64 -12 21 -39 29 -65 19z m4 -68 c7 -5 10 -14 7 -20 -9
-14 -53 -15 -61 -1 -15 25 24 40 54 21z"/>
<path d="M6336 2445 c-27 -42 -47 -77 -45 -79 2 -1 21 -10 42 -20 36 -17 39
-16 75 1 47 23 64 64 37 93 -10 11 -29 20 -42 20 -24 0 -31 14 -13 25 12 7 14
35 3 35 -5 0 -30 -34 -57 -75z m92 -37 c4 -37 -38 -66 -73 -50 -30 14 -32 35
-4 63 30 30 73 23 77 -13z"/>
<path d="M7000 2509 c-29 -11 -59 -47 -60 -70 0 -25 33 -49 69 -49 19 0 30 4
26 10 -3 6 -17 10 -31 10 -23 0 -43 24 -31 37 3 3 26 -2 51 -10 44 -15 46 -15
57 4 14 27 2 58 -28 70 -13 5 -25 9 -26 8 -1 0 -13 -5 -27 -10z m44 -15 c9 -3
16 -15 16 -25 0 -22 2 -22 -39 -8 -32 11 -40 24 -18 32 18 8 23 8 41 1z"/>
<path d="M7833 2488 c2 -7 9 -14 15 -14 7 -1 17 -2 22 -3 6 0 10 -8 10 -16 0
-11 -9 -13 -43 -9 -34 5 -45 2 -61 -15 -15 -17 -16 -23 -6 -36 7 -8 22 -15 34
-15 12 0 27 -5 33 -11 16 -16 29 -5 60 48 l27 46 -23 18 c-26 22 -75 26 -68 7z
m15 -67 c10 -6 10 -10 -1 -20 -14 -11 -47 -6 -47 8 0 20 26 27 48 12z"/>
<path d="M8040 2480 c-8 -5 -12 -12 -8 -15 9 -9 48 4 48 16 0 12 -21 11 -40
-1z"/>
<path d="M7295 2460 c-3 -5 1 -10 9 -10 9 0 16 5 16 10 0 6 -4 10 -9 10 -6 0
-13 -4 -16 -10z"/>
<path d="M7106 2430 c-14 -17 -26 -37 -26 -44 0 -22 35 -46 68 -46 42 0 41 18
0 22 -29 3 -33 7 -33 32 0 24 6 32 32 43 30 12 35 11 54 -8 23 -23 39 -17 23
9 -7 10 -27 18 -51 20 -35 3 -44 -1 -67 -28z"/>
<path d="M7937 2415 c-32 -49 -32 -78 -2 -83 11 -2 30 -8 42 -14 13 -6 24 -9
26 -7 21 26 67 100 67 108 0 23 -26 8 -52 -29 -29 -41 -54 -51 -64 -25 -3 8 4
28 15 44 24 33 27 51 9 51 -7 0 -26 -20 -41 -45z"/>
<path d="M7236 2375 c-39 -59 -41 -65 -26 -65 10 0 80 98 80 112 0 21 -21 3
-54 -47z"/>
<path d="M6625 2346 c-46 -68 -52 -82 -40 -88 5 -4 105 141 105 153 0 22 -18
4 -65 -65z"/>
<path d="M8212 2393 c-18 -25 -21 -26 -36 -10 -29 29 -84 15 -112 -27 -26 -41
-12 -71 41 -89 l46 -15 50 71 c47 67 59 97 40 97 -5 0 -18 -12 -29 -27z m-53
-37 c16 -19 3 -45 -25 -52 -29 -7 -44 2 -44 26 0 33 48 51 69 26z"/>
<path d="M6510 2401 c0 -5 12 -11 28 -13 16 -2 27 -9 27 -18 0 -12 -11 -14
-52 -12 -44 3 -53 1 -63 -18 -14 -26 2 -50 34 -50 12 0 27 -5 33 -11 8 -8 19
2 42 34 34 49 37 67 19 85 -14 14 -68 16 -68 3z m30 -70 c0 -13 -24 -31 -42
-31 -22 0 -36 29 -19 39 14 9 61 2 61 -8z"/>
<path d="M7293 2360 c-18 -27 -33 -54 -33 -60 0 -19 16 -10 33 20 24 39 45 60
63 60 26 0 26 -28 0 -67 -14 -21 -26 -41 -26 -45 0 -19 19 -5 48 37 20 28 39
45 52 45 28 0 26 -27 -5 -73 -18 -26 -22 -37 -12 -37 16 0 67 72 67 94 0 21
-27 39 -50 33 -11 -3 -23 1 -28 9 -4 7 -17 15 -29 17 -13 2 -26 6 -29 10 -13
12 -18 7 -51 -43z"/>
<path d="M6680 2325 c-28 -42 -50 -81 -47 -88 2 -7 17 7 33 30 30 44 67 64 86
45 12 -12 4 -36 -27 -79 -9 -12 -12 -24 -7 -27 15 -9 70 83 64 106 -3 11 -16
21 -34 25 -27 5 -28 7 -13 29 8 13 11 25 5 29 -5 3 -32 -29 -60 -70z"/>
<path d="M8229 2311 c-32 -32 -35 -48 -16 -74 17 -24 87 -35 87 -14 0 10 -11
17 -27 19 -16 2 -29 10 -31 19 -3 16 0 16 43 0 40 -14 47 -14 55 -1 42 67 -52
110 -111 51z m81 -6 c18 -22 4 -30 -27 -16 -22 10 -24 14 -12 22 19 12 25 11
39 -6z"/>
<path d="M7512 2304 c-26 -18 -44 -57 -36 -78 8 -20 60 -40 81 -31 15 7 13 9
-11 14 -28 6 -56 34 -45 45 3 3 27 -1 53 -10 41 -14 50 -14 57 -3 12 20 11 53
-3 67 -17 17 -69 15 -96 -4z m78 -8 c0 -2 3 -11 6 -20 7 -19 -12 -21 -51 -6
-14 5 -23 14 -20 20 6 9 65 15 65 6z"/>
<path d="M6811 2264 c-37 -31 -40 -66 -9 -88 32 -23 62 -20 97 10 35 29 40 63
13 87 -27 24 -66 21 -101 -9z m93 -16 c8 -13 5 -23 -14 -43 -48 -51 -111 -15
-69 39 24 31 65 32 83 4z"/>
<path d="M7641 2236 c-35 -50 -39 -59 -29 -66 4 -3 21 14 38 38 23 32 37 42
53 40 30 -4 33 -32 7 -68 -12 -17 -20 -36 -18 -42 6 -16 68 70 68 93 0 20 -19
32 -62 43 -24 5 -31 1 -57 -38z"/>
<path d="M7825 2240 c-4 -6 -11 -8 -16 -5 -5 4 -9 -4 -9 -17 0 -13 -9 -34 -20
-48 -24 -30 -25 -56 -4 -64 24 -9 26 -8 19 14 -9 28 24 80 51 80 20 0 21 2 11
25 -13 27 -22 31 -32 15z"/>
<path d="M7893 2180 c-27 -11 -56 -53 -51 -77 2 -9 15 -24 29 -32 70 -39 162
58 97 103 -25 18 -42 19 -75 6z m67 -25 c28 -34 -30 -89 -75 -71 -23 8 -18 53
7 70 28 20 52 20 68 1z"/>
<path d="M6915 2149 c-10 -15 3 -25 16 -12 7 7 7 13 1 17 -6 3 -14 1 -17 -5z"/>
<path d="M8092 2094 c-26 -18 -44 -57 -36 -78 8 -20 60 -40 81 -31 15 7 13 9
-11 14 -28 6 -56 34 -45 45 3 3 27 -1 53 -10 41 -14 50 -14 57 -3 35 56 -40
104 -99 63z m74 -19 c11 -27 0 -34 -34 -19 -18 7 -31 18 -27 24 9 15 55 12 61
-5z"/>
</g>
</svg>
